<svg width="315" height="321" viewBox="0 0 315 321" fill="none" xmlns="http://www.w3.org/2000/svg">
<path d="M212.335 274.514C239.329 264.09 254.789 238.948 246.866 218.358C238.942 197.768 210.637 189.527 183.643 199.952C156.65 210.376 141.19 235.518 149.113 256.108C157.036 276.698 185.342 284.938 212.335 274.514Z" fill="#3B53E4"/>
<path d="M337.151 80.073C364.145 69.6488 379.605 44.5068 371.681 23.9169C363.758 3.32698 335.453 -4.91391 308.459 5.51034C281.466 15.9346 266.006 41.0766 273.929 61.6665C281.852 82.2564 310.158 90.4973 337.151 80.073Z" fill="#CE2088"/>
<path d="M66.2924 350.932C93.2859 340.508 108.746 315.366 100.822 294.776C92.8994 274.186 64.5939 265.945 37.6004 276.369C10.6069 286.794 -4.85281 311.936 3.07027 332.525C10.9933 353.115 39.2988 361.356 66.2924 350.932Z" fill="#45229C"/>
<path d="M253.941 329.705C280.934 319.281 296.394 294.139 288.471 273.549C280.548 252.959 252.242 244.718 225.249 255.142C198.255 265.566 182.796 290.708 190.719 311.298C198.642 331.888 226.947 340.129 253.941 329.705Z" fill="#5DD2C4"/>
</svg>
