<svg width="322" height="124" viewBox="0 0 322 124" fill="none" xmlns="http://www.w3.org/2000/svg">
<path d="M95.8397 116.39C135.049 101.178 157.505 64.4888 145.996 34.4422C134.487 4.39562 93.3726 -7.63021 54.1635 7.58177C14.9543 22.7937 -7.50142 59.4831 4.00715 89.5296C15.5157 119.576 56.6306 131.602 95.8397 116.39Z" fill="white"/>
<path d="M241.84 116.39C281.049 101.178 303.505 64.4888 291.996 34.4422C280.487 4.39562 239.373 -7.63021 200.163 7.58177C160.954 22.7937 138.499 59.4831 150.007 89.5296C161.516 119.576 202.631 131.602 241.84 116.39Z" fill="white"/>
<path d="M387.84 116.39C427.049 101.178 449.505 64.4888 437.996 34.4422C426.487 4.39562 385.373 -7.63021 346.163 7.58177C306.954 22.7937 284.499 59.4831 296.007 89.5296C307.516 119.576 348.631 131.602 387.84 116.39Z" fill="white"/>
</svg>
