<svg width="945" height="161" viewBox="0 0 945 161" fill="none" xmlns="http://www.w3.org/2000/svg">
<path d="M124.035 151.386C174.901 131.56 204.033 83.7437 189.103 44.5846C174.173 5.42551 120.835 -10.2475 69.9688 9.57795C19.1029 29.4034 -10.0289 77.2198 4.90115 116.379C19.8312 155.538 73.1694 171.211 124.035 151.386Z" fill="white"/>
<path d="M314.035 151.386C364.901 131.56 394.033 83.7437 379.103 44.5846C364.173 5.42551 310.835 -10.2475 259.969 9.57795C209.103 29.4034 179.971 77.2198 194.901 116.379C209.831 155.538 263.169 171.211 314.035 151.386Z" fill="white"/>
<path d="M504.035 151.386C554.901 131.56 584.033 83.7437 569.103 44.5846C554.173 5.42551 500.835 -10.2475 449.969 9.57795C399.103 29.4034 369.971 77.2198 384.901 116.379C399.831 155.538 453.169 171.211 504.035 151.386Z" fill="white"/>
<path d="M694.035 152.386C744.901 132.56 774.033 84.7437 759.103 45.5846C744.173 6.42551 690.835 -9.24749 639.969 10.578C589.103 30.4034 559.971 78.2198 574.901 117.379C589.831 156.538 643.169 172.211 694.035 152.386Z" fill="white"/>
<path d="M884.035 152.386C934.901 132.56 964.033 84.7437 949.103 45.5846C934.173 6.42551 880.835 -9.24749 829.969 10.578C779.103 30.4034 749.971 78.2198 764.901 117.379C779.831 156.538 833.169 172.211 884.035 152.386Z" fill="white"/>
</svg>
