<svg width="360" height="81" viewBox="0 0 360 81" fill="none" xmlns="http://www.w3.org/2000/svg">
<path d="M3.68432 76.0506C29.1862 66.1566 43.7916 42.2936 36.3063 22.7511C28.8211 3.20865 2.07973 -4.61303 -23.4222 5.28094C-48.924 15.1749 -63.5294 39.0379 -56.0442 58.5804C-48.5589 78.1229 -21.8176 85.9445 3.68432 76.0506Z" fill="white"/>
<path d="M98.6437 76.0506C124.146 66.1566 138.751 42.2936 131.266 22.7511C123.78 3.20865 97.0391 -4.61303 71.5372 5.28094C46.0353 15.1749 31.4299 39.0379 38.9152 58.5804C46.4004 78.1229 73.1418 85.9445 98.6437 76.0506Z" fill="white"/>
<path d="M193.603 76.0506C219.105 66.1566 233.71 42.2936 226.225 22.7511C218.74 3.20865 191.998 -4.61303 166.497 5.28094C140.995 15.1749 126.389 39.0379 133.875 58.5804C141.36 78.1229 168.101 85.9445 193.603 76.0506Z" fill="white"/>
<path d="M288.562 76.701C314.064 66.807 328.67 42.944 321.184 23.4015C313.699 3.85904 286.958 -3.96264 261.456 5.93133C235.954 15.8253 221.349 39.6883 228.834 59.2308C236.319 78.7733 263.06 86.5949 288.562 76.701Z" fill="white"/>
<path d="M383.522 76.701C409.024 66.807 423.629 42.944 416.144 23.4015C408.658 3.85904 381.917 -3.96264 356.415 5.93133C330.913 15.8253 316.308 39.6883 323.793 59.2308C331.278 78.7733 358.02 86.5949 383.522 76.701Z" fill="white"/>
</svg>
