<svg width="246" height="289" viewBox="0 0 246 289" fill="none" xmlns="http://www.w3.org/2000/svg">
<path d="M186.032 240.045C209.61 230.943 223.114 208.989 216.194 191.011C209.273 173.032 184.548 165.836 160.97 174.938C137.391 184.041 123.888 205.994 130.808 223.973C137.729 241.951 162.454 249.147 186.032 240.045Z" fill="#3B53E4"/>
<path d="M295.032 70.045C318.61 60.9427 332.114 38.9893 325.194 21.0106C318.273 3.03189 293.548 -4.16389 269.97 4.93835C246.391 14.0406 232.888 35.994 239.808 53.9727C246.729 71.9514 271.454 79.1472 295.032 70.045Z" fill="#CE2088"/>
<path d="M58.032 307.045C81.6105 297.943 95.1143 275.989 88.1936 258.011C81.2729 240.032 56.5484 232.836 32.97 241.938C9.39148 251.041 -4.11232 272.994 2.80837 290.973C9.72907 308.951 34.4535 316.147 58.032 307.045Z" fill="#45229C"/>
<path d="M222.032 289.045C245.61 279.943 259.114 257.989 252.194 240.011C245.273 222.032 220.548 214.836 196.97 223.938C173.391 233.041 159.888 254.994 166.808 272.973C173.729 290.951 198.454 298.147 222.032 289.045Z" fill="#5DD2C4"/>
</svg>
