<svg width="441" height="360" viewBox="0 0 441 360" fill="none" xmlns="http://www.w3.org/2000/svg">
<path d="M249.897 299.127C281.688 286.85 299.896 257.24 290.564 232.99C281.233 208.741 247.897 199.035 216.106 211.312C184.314 223.589 166.107 253.2 175.438 277.449C184.77 301.698 218.106 311.404 249.897 299.127Z" fill="#3B53E4"/>
<path d="M396.897 70.1271C428.688 57.85 446.896 28.2395 437.564 3.99005C428.233 -20.2594 394.897 -29.965 363.106 -17.688C331.314 -5.41098 313.107 24.1996 322.438 48.449C331.77 72.6985 365.106 82.4041 396.897 70.1271Z" fill="#CE2088"/>
<path d="M77.8971 389.127C109.688 376.85 127.896 347.24 118.564 322.99C109.233 298.741 75.8968 289.035 44.1055 301.312C12.3143 313.589 -5.89303 343.2 3.43825 367.449C12.7695 391.698 46.1059 401.404 77.8971 389.127Z" fill="#45229C"/>
<path d="M298.897 364.127C330.688 351.85 348.896 322.24 339.564 297.99C330.233 273.741 296.897 264.035 265.106 276.312C233.314 288.589 215.107 318.2 224.438 342.449C233.77 366.698 267.106 376.404 298.897 364.127Z" fill="#5DD2C4"/>
</svg>
